<svg width="100" height="100" viewBox="0 0 100 100" xmlns="http://www.w3.org/2000/svg">
  <style>
    .sk-stroke { stroke: #333; stroke-width: 1.5; stroke-linecap: round; stroke-linejoin: round; fill: none; }
    .sk-fill-metal { fill: #e0e0e0; }
    .sk-fill-pad { fill: #f0d0d0; } /* Soft pinkish pad */
    .sk-detail-line { stroke: #555; stroke-width: 1; fill:none; stroke-linecap:round;}
  </style>
  <rect width="100" height="100" fill="#F8F9FA"/>

  <!-- Main body / upper arm -->
  <path class="sk-stroke sk-fill-metal" d="M30 30 C25 40 25 60 35 70 L40 70 C45 60 45 40 40 30 Z"/>
  <!-- Lower arm / handle -->
  <path class="sk-stroke sk-fill-metal" d="M30 75 C25 80 25 90 35 95 L60 95 C70 90 70 80 65 75 L60 75 C55 80 40 80 35 75 Z"/>
  
  <!-- Curler head -->
  <path class="sk-stroke sk-fill-metal" d="M40 30 C50 25 70 25 80 35 C75 45 55 45 45 30"/>
  <!-- Upper pad -->
  <path class="sk-stroke sk-fill-pad" d="M48 32 C55 30 65 30 72 34"/>
  <!-- Lower pad -->
  <path class="sk-stroke sk-fill-pad" d="M45 38 C55 36 68 36 75 40"/>

  <!-- Connecting pivot (simple circle) -->
  <circle class="sk-stroke" cx="42" cy="68" r="3" fill="#bbb"/>

  <!-- Sketchy details -->
  <line x1="33" y1="45" x2="37" y2="45" class="sk-detail-line"/>
  <line x1="33" y1="55" x2="37" y2="55" class="sk-detail-line"/>
  <line x1="45" y1="85" x2="55" y2="85" class="sk-detail-line"/>
</svg>
