<svg width="100" height="100" viewBox="0 0 100 100" xmlns="http://www.w3.org/2000/svg">
  <rect width="100" height="100" fill="#F3F4F6"/> <!-- Light gray background -->
  <!-- Central chip-like square -->
  <rect x="30" y="30" width="40" height="40" fill="#4B5563" rx="3" ry="3"/>
  <!-- Pins/connections -->
  <line x1="30" y1="20" x2="30" y2="30" stroke="#6B7280" stroke-width="4"/>
  <line x1="40" y1="20" x2="40" y2="30" stroke="#6B7280" stroke-width="4"/>
  <line x1="50" y1="20" x2="50" y2="30" stroke="#6B7280" stroke-width="4"/>
  <line x1="60" y1="20" x2="60" y2="30" stroke="#6B7280" stroke-width="4"/>
  <line x1="70" y1="30" x2="80" y2="30" stroke="#6B7280" stroke-width="4"/>
  <line x1="70" y1="40" x2="80" y2="40" stroke="#6B7280" stroke-width="4"/>
  <line x1="70" y1="50" x2="80" y2="50" stroke="#6B7280" stroke-width="4"/>
  <line x1="70" y1="60" x2="80" y2="60" stroke="#6B7280" stroke-width="4"/>
  <line x1="30" y1="70" x2="30" y2="80" stroke="#6B7280" stroke-width="4"/>
  <line x1="40" y1="70" x2="40" y2="80" stroke="#6B7280" stroke-width="4"/>
  <line x1="50" y1="70" x2="50" y2="80" stroke="#6B7280" stroke-width="4"/>
  <line x1="60" y1="70" x2="60" y2="80" stroke="#6B7280" stroke-width="4"/>
  <line x1="20" y1="30" x2="30" y2="30" stroke="#6B7280" stroke-width="4"/>
  <line x1="20" y1="40" x2="30" y2="40" stroke="#6B7280" stroke-width="4"/>
  <line x1="20" y1="50" x2="30" y2="50" stroke="#6B7280" stroke-width="4"/>
  <line x1="20" y1="60" x2="30" y2="60" stroke="#6B7280" stroke-width="4"/>
  <!-- Small circles on the chip -->
  <circle cx="38" cy="38" r="3" fill="#9CA3AF"/>
  <circle cx="50" cy="38" r="3" fill="#9CA3AF"/>
  <circle cx="62" cy="38" r="3" fill="#9CA3AF"/>
  <circle cx="38" cy="50" r="3" fill="#9CA3AF"/>
  <circle cx="62" cy="50" r="3" fill="#9CA3AF"/>
  <circle cx="38" cy="62" r="3" fill="#9CA3AF"/>
  <circle cx="50" cy="62" r="3" fill="#9CA3AF"/>
  <circle cx="62" cy="62" r="3" fill="#9CA3AF"/>
</svg>
