<svg width="100" height="100" viewBox="0 0 100 100" xmlns="http://www.w3.org/2000/svg">
  <style>
    .sk-stroke { stroke: #333; stroke-width: 1.5; stroke-linecap: round; stroke-linejoin: round; fill: none; }
    .sk-fill-leather { fill: #d2b48c; } /* Tan leather */
    .sk-fill-metal { fill: #c0c0c0; } /* Silver metal */
    .sk-detail { stroke: #555; stroke-width: 1; }
  </style>
  <rect width="100" height="100" fill="#F8F9FA"/>

  <!-- Handbag Body -->
  <path class="sk-stroke sk-fill-leather" d="M20 75 C18 75 15 72 15 70 L15 40 C15 35 20 30 25 30 L75 30 C80 30 85 35 85 40 L85 70 C85 72 82 75 80 75 Z"/>
  <!-- Flap -->
  <path class="sk-stroke sk-fill-leather" d="M15 40 L50 55 L85 40"/>
  
  <!-- Handle -->
  <path class="sk-stroke sk-fill-leather" d="M35 30 C30 15 70 15 65 30"/>
  
  <!-- Buckle/Clasp -->
  <rect x="45" y="52" width="10" height="5" class="sk-stroke sk-fill-metal" rx="1"/>

  <!-- Stitching details -->
  <path class="sk-detail" d="M20 35 L80 35" stroke-dasharray="2 2"/>
  <path class="sk-detail" d="M20 70 L80 70" stroke-dasharray="2 2"/>
  <path class="sk-detail" d="M18 40 L18 70" stroke-dasharray="2 2"/>
  <path class="sk-detail" d="M82 40 L82 70" stroke-dasharray="2 2"/>
  <path class="sk-detail" d="M20 40 L50 53 L80 40" stroke-dasharray="2 2"/>
</svg>
