<svg width="100" height="100" viewBox="0 0 100 100" xmlns="http://www.w3.org/2000/svg">
  <style>
    .sk-stroke { stroke: #333; stroke-width: 1.5; stroke-linecap: round; stroke-linejoin: round; fill: none; }
    .sk-fill-fabric { fill: #e6e6fa; } /* Light lavender */
    .sk-detail { stroke: #555; stroke-width: 1; }
  </style>
  <rect width="100" height="100" fill="#F8F9FA"/>

  <!-- T-shirt Body -->
  <path class="sk-stroke sk-fill-fabric" d="M25 75 C25 78 22 80 20 80 L80 80 C78 80 75 78 75 75 L75 40 L65 30 L35 30 L25 40 Z"/>
  
  <!-- Sleeves -->
  <path class="sk-stroke sk-fill-fabric" d="M25 40 L15 45 L18 55 L28 50 Z"/>
  <path class="sk-stroke sk-fill-fabric" d="M75 40 L85 45 L82 55 L72 50 Z"/>
  
  <!-- Neckline -->
  <path class="sk-stroke" d="M35 30 C40 35 60 35 65 30"/>

  <!-- Sketchy fold lines -->
  <path d="M50 45 Q45 55 50 65" class="sk-detail"/>
  <path d="M40 70 Q45 65 50 70" class="sk-detail"/>
  <path d="M60 70 Q55 65 50 70" class="sk-detail"/>
</svg>
