<svg width="100" height="100" viewBox="0 0 100 100" xmlns="http://www.w3.org/2000/svg">
  <style>
    .sk-stroke { stroke: #333; stroke-width: 1.5; stroke-linecap: round; stroke-linejoin: round; fill: none; }
    .sk-fill-body { fill: #f0f0f0; } /* Light grey body */
    .sk-fill-sole { fill: #dcdcdc; } /* Darker grey sole */
    .sk-fill-laces { fill: #ffffff; }
    .sk-detail { stroke: #555; stroke-width: 1; }
  </style>
  <rect width="100" height="100" fill="#F8F9FA"/>

  <!-- Sneaker Body -->
  <path class="sk-stroke sk-fill-body" d="M20 75 C15 70 15 50 25 40 L70 40 C85 40 90 55 80 65 L70 75 Z"/>
  <!-- Sole -->
  <path class="sk-stroke sk-fill-sole" d="M20 75 L70 75 C75 75 75 80 70 80 L20 80 C15 80 15 75 20 75 Z"/>
  
  <!-- Laces Area -->
  <path class="sk-stroke sk-fill-laces" d="M40 42 L60 42 L55 55 L45 55 Z"/>
  <!-- Sketchy Laces -->
  <line x1="42" y1="45" x2="58" y2="45" class="sk-detail"/>
  <line x1="43" y1="48" x2="57" y2="48" class="sk-detail"/>
  <line x1="44" y1="51" x2="56" y2="51" class="sk-detail"/>

  <!-- Tongue -->
  <path class="sk-stroke sk-fill-body" d="M45 40 C48 35 52 35 55 40"/>
  
  <!-- Detail lines -->
  <path class="sk-detail" d="M25 60 C30 58 35 60 40 58"/>
  <path class="sk-detail" d="M60 50 C65 55 70 50 75 55"/>
</svg>
