<svg width="100" height="100" viewBox="0 0 100 100" xmlns="http://www.w3.org/2000/svg">
  <style>
    .sk-stroke { stroke: #333; stroke-width: 1.5; stroke-linecap: round; stroke-linejoin: round; fill: none; }
    .sk-fill-body { fill: #e0e0e0; }
    .sk-fill-button { fill: #c0c0c0; }
    .sk-detail { stroke: #555; stroke-width: 1; }
  </style>
  <rect width="100" height="100" fill="#F8F9FA"/>

  <!-- Controller Body -->
  <path class="sk-stroke sk-fill-body" d="M20 60 C10 60 10 40 20 40 L30 40 C35 30 65 30 70 40 L80 40 C90 40 90 60 80 60 L70 60 C65 70 35 70 30 60 Z"/>
  
  <!-- D-pad -->
  <path class="sk-stroke sk-fill-button" d="M30 45 L30 55 L25 50 Z M30 50 L40 50 L35 45 Z M35 55 L40 50 L30 50 Z M25 50 L35 45 L30 50 Z"/>
  <rect x="28" y="48" width="4" height="4" class="sk-stroke sk-fill-button"/> <!-- Center of D-pad -->
  <rect x="33" y="48" width="4" height="4" class="sk-stroke sk-fill-button"/>
  <rect x="28" y="53" width="4" height="4" class="sk-stroke sk-fill-button"/>
  <rect x="33" y="53" width="4" height="4" class="sk-stroke sk-fill-button"/>


  <!-- Action Buttons -->
  <circle cx="65" cy="45" r="4" class="sk-stroke sk-fill-button"/>
  <circle cx="75" cy="50" r="4" class="sk-stroke sk-fill-button"/>
  <circle cx="65" cy="55" r="4" class="sk-stroke sk-fill-button"/>
  <circle cx="55" cy="50" r="4" class="sk-stroke sk-fill-button"/>

  <!-- Start/Select buttons -->
  <ellipse cx="45" cy="60" rx="3" ry="2" class="sk-stroke sk-fill-button"/>
  <ellipse cx="55" cy="60" rx="3" ry="2" class="sk-stroke sk-fill-button"/>

  <!-- Analog stick bases (simplified) -->
  <circle cx="35" cy="60" r="5" class="sk-stroke sk-fill-body" stroke-dasharray="2 2"/>
  <circle cx="65" cy="35" r="5" class="sk-stroke sk-fill-body" stroke-dasharray="2 2"/>
</svg>
