<svg width="100" height="100" viewBox="0 0 100 100" xmlns="http://www.w3.org/2000/svg">
  <style>
    .sk-stroke { stroke: #333; stroke-width: 1.5; stroke-linecap: round; stroke-linejoin: round; fill: none; }
    .sk-fill-body { fill: #e0e0e0; }
    .sk-fill-lens { fill: #c0c0c0; }
    .sk-fill-dark { fill: #555; }
    .sk-detail { stroke: #555; stroke-width: 1; }
  </style>
  <rect width="100" height="100" fill="#F8F9FA"/>

  <!-- Camera Body -->
  <path class="sk-stroke sk-fill-body" d="M15 70 C13 70 12 68 12 65 L12 35 C12 32 13 30 15 30 L85 30 C87 30 88 32 88 35 L88 65 C88 68 87 70 85 70 Z"/>
  
  <!-- Lens Mount -->
  <circle class="sk-stroke sk-fill-lens" cx="50" cy="50" r="25"/>
  <!-- Inner Lens -->
  <circle class="sk-stroke sk-fill-dark" cx="50" cy="50" r="15"/>
  <circle class="sk-stroke" cx="50" cy="50" r="8" fill="#333"/>

  <!-- Viewfinder -->
  <path class="sk-stroke sk-fill-dark" d="M20 28 L30 28 L30 22 L20 22 Z"/>
  <!-- Shutter Button -->
  <ellipse class="sk-stroke sk-fill-body" cx="75" cy="28" rx="5" ry="2.5"/>

  <!-- Grip sketch lines -->
  <line x1="78" y1="35" x2="78" y2="65" class="sk-detail"/>
  <line x1="82" y1="38" x2="82" y2="62" class="sk-detail"/>
</svg>
