<svg width="100" height="100" viewBox="0 0 100 100" xmlns="http://www.w3.org/2000/svg">
  <style>
    .sk-stroke { stroke: #333; stroke-width: 1.5; stroke-linecap: round; stroke-linejoin: round; fill: none; }
    .sk-fill-body { fill: #d8d8d8; }
    .sk-fill-grill { fill: #c0c0c0; }
    .sk-detail { stroke: #555; stroke-width: 1; }
    .sk-dot { fill: #555; }
  </style>
  <rect width="100" height="100" fill="#F8F9FA"/>

  <!-- Speaker Box -->
  <path class="sk-stroke sk-fill-body" d="M25 85 C23 85 20 82 20 80 L20 20 C20 18 23 15 25 15 L75 15 C77 15 80 18 80 20 L80 80 C80 82 77 85 75 85 Z"/>
  
  <!-- Speaker Grill -->
  <path class="sk-stroke sk-fill-grill" d="M25 75 L25 25 L75 25 L75 75 Z"/>
  
  <!-- Sketchy dots for grill pattern -->
  <circle cx="35" cy="35" r="1.5" class="sk-dot"/> <circle cx="45" cy="35" r="1.5" class="sk-dot"/> <circle cx="55" cy="35" r="1.5" class="sk-dot"/> <circle cx="65" cy="35" r="1.5" class="sk-dot"/>
  <circle cx="35" cy="45" r="1.5" class="sk-dot"/> <circle cx="45" cy="45" r="1.5" class="sk-dot"/> <circle cx="55" cy="45" r="1.5" class="sk-dot"/> <circle cx="65" cy="45" r="1.5" class="sk-dot"/>
  <circle cx="35" cy="55" r="1.5" class="sk-dot"/> <circle cx="45" cy="55" r="1.5" class="sk-dot"/> <circle cx="55" cy="55" r="1.5" class="sk-dot"/> <circle cx="65" cy="55" r="1.5" class="sk-dot"/>
  <circle cx="35" cy="65" r="1.5" class="sk-dot"/> <circle cx="45" cy="65" r="1.5" class="sk-dot"/> <circle cx="55" cy="65" r="1.5" class="sk-dot"/> <circle cx="65" cy="65" r="1.5" class="sk-dot"/>

  <!-- Knob/Button -->
  <circle cx="50" cy="80" r="3" class="sk-stroke sk-fill-body"/>
  <line x1="50" y1="78" x2="50" y2="82" class="sk-stroke"/>
</svg>
