<svg width="100" height="100" viewBox="0 0 100 100" xmlns="http://www.w3.org/2000/svg">
  <style>
    .sk-stroke { stroke: #333; stroke-width: 1.5; stroke-linecap: round; stroke-linejoin: round; fill: none; }
    .sk-fill-pot { fill: #a0522d; } /* Sienna - terracotta pot */
    .sk-fill-plant { fill: #228b22; } /* ForestGreen */
    .sk-fill-soil { fill: #8b4513; } /* SaddleBrown */
    .sk-detail { stroke: #555; stroke-width: 1; }
  </style>
  <rect width="100" height="100" fill="#F8F9FA"/>

  <!-- Pot -->
  <path class="sk-stroke sk-fill-pot" d="M30 85 C30 75 35 70 40 70 L60 70 C65 70 70 75 70 85 Z"/>
  <!-- Pot Rim -->
  <rect x="30" y="65" width="40" height="5" class="sk-stroke sk-fill-pot" rx="1"/>
  <!-- Soil -->
  <ellipse cx="50" cy="68" rx="18" ry="3" class="sk-stroke sk-fill-soil"/>

  <!-- Plant Stem -->
  <line x1="50" y1="68" x2="50" y2="40" class="sk-stroke" stroke="#006400" stroke-width="2"/>

  <!-- Leaves -->
  <g class="sk-stroke sk-fill-plant">
    <path d="M50 40 C40 30 35 45 50 50"/>
    <path d="M50 40 C60 30 65 45 50 50"/>
    <path d="M50 45 C40 35 35 50 50 55"/>
    <path d="M50 45 C60 35 65 50 50 55"/>
    <path d="M50 50 C45 40 40 55 50 60"/>
    <path d="M50 50 C55 40 60 55 50 60"/>
    
    <!-- Smaller leaves -->
    <ellipse cx="40" cy="35" rx="8" ry="4" transform="rotate(-30 40 35)"/>
    <ellipse cx="60" cy="35" rx="8" ry="4" transform="rotate(30 60 35)"/>
    <ellipse cx="35" cy="50" rx="7" ry="3" transform="rotate(-45 35 50)"/>
    <ellipse cx="65" cy="50" rx="7" ry="3" transform="rotate(45 65 50)"/>
  </g>
  
  <!-- Pot details -->
  <line x1="40" y1="72" x2="40" y2="83" class="sk-detail"/>
  <line x1="60" y1="72" x2="60" y2="83" class="sk-detail"/>
</svg>
