<svg width="100" height="100" viewBox="0 0 100 100" xmlns="http://www.w3.org/2000/svg">
  <style>
    .sk-stroke { stroke: #333; stroke-width: 1.5; stroke-linecap: round; stroke-linejoin: round; fill: none; }
    .sk-fill-fabric { fill: #f0e68c; } /* Khaki - neutral fabric */
    .sk-fill-wood { fill: #saddlebrown; }
    .sk-detail { stroke: #555; stroke-width: 1; }
  </style>
  <rect width="100" height="100" fill="#F8F9FA"/>

  <!-- Armchair Back -->
  <path class="sk-stroke sk-fill-fabric" d="M20 60 C20 40 25 30 30 30 L70 30 C75 30 80 40 80 60 Z"/>
  <!-- Armchair Seat -->
  <path class="sk-stroke sk-fill-fabric" d="M20 60 L80 60 L75 75 L25 75 Z"/>
  
  <!-- Armrests -->
  <path class="sk-stroke sk-fill-fabric" d="M15 70 C15 55 20 50 25 50 L25 60 Z"/>
  <path class="sk-stroke sk-fill-fabric" d="M85 70 C85 55 80 50 75 50 L75 60 Z"/>
  
  <!-- Legs -->
  <line x1="25" y1="75" x2="20" y2="85" class="sk-stroke sk-fill-wood"/>
  <line x1="75" y1="75" x2="80" y2="85" class="sk-stroke sk-fill-wood"/>
  <line x1="30" y1="75" x2="28" y2="85" class="sk-stroke sk-fill-wood" stroke-dasharray="1 2"/> <!-- back leg hint -->
  <line x1="70" y1="75" x2="72" y2="85" class="sk-stroke sk-fill-wood" stroke-dasharray="1 2"/> <!-- back leg hint -->

  <!-- Cushion details -->
  <path class="sk-detail" d="M30 35 Q50 40 70 35"/>
  <path class="sk-detail" d="M25 62 Q50 65 75 62"/>
  <path class="sk-detail" d="M22 55 L22 65"/>
  <path class="sk-detail" d="M78 55 L78 65"/>
</svg>
